/* XPM */
static char *result[] = {
/* columns rows colors chars-per-pixel */
"96 32 14 1 ",
"  c #000001",
". c gray8",
"X c #1F1C29",
"o c #382838",
"O c #403659",
"+ c #62374E",
"@ c #696354",
"# c #8B507C",
"$ c #C4960A",
"% c #F0C912",
"& c #828573",
"* c #6E5E94",
"= c #8780AD",
"- c #E2E2E2",
/* pixels */
"       XO                                                                                       ",
"       X=OO                                                                                     ",
"       X+=*O                                                                                    ",
"      XO#+=*O                          XO                                                       ",
"     XO**===*O                         X=OO                                                     ",
"     X*O%====*OO                       X+=*O                                                    ",
"     OO$*==**==*O                     XO#+=*O                          XO                       ",
"     O=*-**O*===*O                   XO**===*O                         X=O@--O**OO              ",
"     X++&XO*O*===*O                  X*O%====*OO                       X+=O@&*====*OO           ",
"      XXXO*O*=====*O                 OO$*==*O*=*O                     XO#+=OOoooO*===OO         ",
"        OOOO=======O                 O=*-**OOO*=*O                   XO**==O*oooooOO*==O        ",
"     &OOOOO*===***==O                X++&XOOOO*==*O                  X*O%==*O*oOO+oooO*=O       ",
"     &-&O*======****=O                XXXXOOOO*===*                  OO$*=**O=oo**##+ooO*O      ",
"     O&*===*****OOXXX                   O@--**==***O                 O=*-**O=OO+oO**##+XXX      ",
"      O=*==****XOX                     OOO@&*==***O+                 X++&XOOooOo+#+O*XX         ",
"      O=**==**XOX                      OOOO@O=====O++                 XXXXOOO**O++#+X           ",
"      O==**=*XXX                        OOOXO*=***OXX                    XO*****O++X            ",
"      O*=***=O                          OOOXXO==**X                      O*=**=**ooX            ",
"       O==**O                             OOXO*==*X                       O*OO==OXoo            ",
"       O===O                                XXO*=**X                       XOX**XOooo           ",
"       O*==O                                   O*=*X                          OO*X              ",
"        O=O                                     O*=*X                          OX               ",
"        O=O                                      OO*X                          X                ",
"         O                                         OX                                           ",
"         O                                                                                      ",
"                                                                                                ",
"                                                                                                ",
"                                                                                                ",
"           .........                     .............                  ................        ",
"        ...............                .................              ....................      ",
"        ...............                .................              ....................      ",
"           .........                     .............                  ................        "
};
