/* XPM */
static char *result[] = {
/* columns rows colors chars-per-pixel */
"128 128 16 1 ",
"  c #000001",
". c #1F1C29",
"X c #382838",
"o c #403659",
"O c #62374E",
"+ c #696354",
"@ c #8B507C",
"# c #C4960A",
"$ c #F0C912",
"% c #828573",
"& c #6E5E94",
"* c #9D9D9D",
"= c #8780AD",
"- c #BCBCBC",
"; c #E2E2E2",
": c None",
/* pixels */
"            .o:::o.                                                                                                             ",
"            o=o:o=o                                                                                                             ",
"            oO=o=Oo                         .o   o.                                                         .o   o.             ",
"            O@&&&@O                         o=o o=o             o&&&&&                   &&&&&o             o=o o=o             ",
"           .o&===&o.                        oO=o=Oo              o====&o               o&====o              oO=o=Oo             ",
"          .o$#o&o#$o.                       O@&&&@O               XOOX==&o           o&==XOOX               O@&&&@O             ",
"          .ooo&=&ooo.                      .o&===&o.               X@OXX==o         o==XXO@X               .o&===&o.            ",
"          o.&;OOO;&.o                     .o$#o&o#$o               X@@@OX+;;%     %;;+XO@@@X              .o$#o&o#$o            ",
"         o&X.%...%.X&o                    .ooo&=&ooo.              XOOO&&+%..o   o..%+&&OOOX              .ooo&=&ooo.           ",
"         &oXXoooooXXo&                   oo.&;OOO;&.oo              X&&oo&.:o=o o=o:.&oo&&X              oo.&;OOO;&.oo          ",
"        o&oXXo&&&oXXo&o                o&&oo.%...%.oo&&o            XOOO&.::oO=o=Oo::.&OOOX            o&&oo.%...%.oo&&o        ",
"        o=..XO&=&OX..&o               o&oooX.ooooo.Xooo&o           X@@O&.::O@&&&@O::.&O@@X           o&oooX.ooooo.Xooo&o       ",
"        &=....XXX....=&              o&==;;XXo&&ooXX;;==&o           XOo&.:.o&===&o.:.o&OX           o&==;;XXo&&ooXX;;==&o      ",
"       o==o...XOX...o=&o            o&==&o%;XO&=oOX;%o&==&o          Xo&X&.o$#o&o#$o.oX&oX          o&==&o%;XO&=oOX;%o&==&o     ",
"       o==...XOOOX.o&&=o            o&&oXXXXO&XXX&OXXXXo&&o          X&XOo.ooo&=&ooo.oOX&X          o&&oXXXXO&XXX&OXXXXo&&o     ",
"       &=&.-.     .-;&=&           o&=XXXX .o.XOX.o. XXXX=&o          XO@Xo.&;OOO;&.oX@OX          o&=XXXX .o.XOX.o. XXXX=&o    ",
"       &=&.--.   .--o&=&          o&=XXX    .XOOOX.    XXX=&o         X@@OXo.%...%.oXO@@X         o&=XXX    .XOOOX.    XXX=&o   ",
"       &&o&..     ..&o&&          o=X                     X=o          XX@OX.ooooo.XO@XX          o=X                     X=o   ",
"       &o&&.       .&&o&         o=X                       X=o           X@XXo&&ooXX@.           o=X                       X=o  ",
"       oo&o.       .o&oo         oX                         Xo            XOXO&=oOXO.            oX                         Xo  ",
"        o&o.       .o&o          X                           X             XO&XXX&O.             X                           X  ",
"        oo.         .oo                                                    .o.XOX.o.                                            ",
"         o.         .o                                                      .XOOOX.                                             ",
"         o.         .o                                                                                                          ",
"         o           o                                                                                                          ",
"                                                                                                                                ",
"                                                                                                                                ",
"                                                                                                                                ",
"           *********                     *************                  ****************                 *************          ",
"        ***************                *****************              ********************             *****************        ",
"        ***************                *****************              ********************             *****************        ",
"           *********                     *************                  ****************                 *************          ",
"         .o                                                                                                                     ",
"         .=oo                                                                                                                   ",
"         .O=&o                                                                                                                  ",
"        .o@O=&o                          .o                                                              .o                     ",
"       .o&&===&o                         .=oo                                                            .=oo                   ",
"       .&o$====&oo                       .O=&o                                                           .O=&o                  ",
"       oo#&==&&==&o                     .o@O=&o                          .o                             .o@O=&o                 ",
"       o=&;&&o&===&o                   .o&&===&o                         .=o+;;o&&oo                   .o&&===&o                ",
"       .OO%.o&o&===&o                  .&o$====&oo                       .O=o+%&====&oo                .&o$====&oo              ",
"        ...o&o&=====&o                 oo#&==&o&=&o                     .o@O=ooXXXo&===oo              oo#&==&o&=&o             ",
"          oooo=======o                 o=&;&&ooo&=&o                   .o&&==o&XXXXXoo&==o             o=&;&&ooo&=&o            ",
"       %ooooo&===&&&==o                .OO%.oooo&==&o                  .&o$==&o&XooOXXXo&=o            .OO%.oooo&==&o           ",
"       %;%o&======&&&&=o                ....oooo&===&                  oo#&=&&o=XX&&@@OXXo&o            ....oooo&===&           ",
"       o%&===&&&&&oo...                   o+;;&&==&&&o                 o=&;&&o=ooOXo&&@@O...              o+;;&&==&&&o          ",
"        o=&==&&&&.o.                     ooo+%&==&&&oO                 .OO%.ooXXoXO@Oo&..                ooo+%&==&&&oO          ",
"        o=&&==&&.o.                      oooo+o=====oOO                 ....ooo&&oOO@O.                  oooo+o=====oOO         ",
"        o==&&=&...                        ooo.o&=&&&o..                    .o&&&&&oOO.                    ooo.o&=&&&o..         ",
"        o&=&&&=o                          ooo..o==&&.                      o&=&&=&&XX.                    ooo..o==&&.           ",
"         o==&&o                             oo.o&==&.                       o&oo==o.XX                      oo.o&==&.           ",
"         o===o                                ..o&=&&.                       .o.&&.oXXX                       ..o&=&&.          ",
"         o&==o                                   o&=&.                          oo&.                             o&=&.          ",
"          o=o                                     o&=&.                          o.                               o&=&.         ",
"          o=o                                      oo&.                          .                                 oo&.         ",
"           o                                         o.                                                              o.         ",
"           o                                                                                                                    ",
"                                                                                                                                ",
"                                                                                                                                ",
"                                                                                                                                ",
"             *********                     *************                  ****************                 *************        ",
"          ***************                *****************              ********************             *****************      ",
"          ***************                *****************              ********************             *****************      ",
"             *********                     *************                  ****************                 *************        ",
"                     o.                                                                                                         ",
"                   oo=.                                                                                                         ",
"                  o&=O.                                                                                                         ",
"                 o&=O@o.                             o.                                                              o.         ",
"                o&===&&o.                          oo=.                                                            oo=.         ",
"              oo&====$o&.                         o&=O.                                                           o&=O.         ",
"             o&==&&==&#oo                        o&=O@o.                             o.                          o&=O@o.        ",
"            o&===&o&&;&=o                       o&===&&o.                   oo&&o;;+o=.                         o&===&&o.       ",
"           o&===&o&o.%OO.                     oo&====$o&.                oo&====&%+o=O.                       oo&====$o&.       ",
"          o&=====&o&o...                     o&=&o&==&#oo              oo===&oXXXoo=O@o.                     o&=&o&==&#oo       ",
"          o=======oooo                      o&=&ooo&&;&=o             o==&ooXXXXX&o==&&o.                   o&=&ooo&&;&=o       ",
"         o==&&&===&ooooo%                  o&==&oooo.%OO.            o=&oXXXOooX&o&==$o&.                  o&==&oooo.%OO.       ",
"        o=&&&&======&o%;%                  &===&oooo....            o&oXXO@@&&XX=o&&=&#oo                  &===&oooo....        ",
"         ...oo&&&&&===&%o                 o&&&==&&;;+o              ...O@@&&oXOoo=o&&;&=o                 o&&&==&&;;+o          ",
"            .o.&&&&==&=o                  Oo&&&==&%+ooo                ..&oO@OXoXXoo.%OO.                 Oo&&&==&%+ooo         ",
"             .o.&&==&&=o                 OOo=====o+oooo                  .O@OOo&&ooo....                 OOo=====o+oooo         ",
"              ...&=&&==o                 ..o&&&=&o.ooo                    .OOo&&&&&o.                    ..o&&&=&o.ooo          ",
"                o=&&&=&o                   .&&==o..ooo                    .XX&&=&&=&o                      .&&==o..ooo          ",
"                 o&&==o                    .&==&o.oo                      XX.o==oo&o                       .&==&o.oo            ",
"                  o===o                   .&&=&o..                       XXXo.&&.o.                       .&&=&o..              ",
"                  o==&o                   .&=&o                             .&oo                          .&=&o                 ",
"                   o=o                   .&=&o                               .o                          .&=&o                  ",
"                   o=o                   .&oo                                 .                          .&oo                   ",
"                    o                    .o                                                              .o                     ",
"                    o                                                                                                           ",
"                                                                                                                                ",
"                                                                                                                                ",
"                                                                                                                                ",
"          *********                     *************                 ****************                  *************           ",
"       ***************                *****************             ********************              *****************         ",
"       ***************                *****************             ********************              *****************         ",
"          *********                     *************                 ****************                  *************           ",
"                                                                                                                                ",
"            .o   o.                                                                                                             ",
"            o=o o=o                                                                                                             ",
"            o=&o&=o                         .o   o.             o&&&&&                   &&&&&o             .o   o.             ",
"            &=====&                         o=o o=o              o====&o               o&====o              o=o o=o             ",
"           o&=====&o                        o=&o&=o               o&&===&o           o&====&o               o=&o&=o             ",
"           o&&===&&o                        &=====&                o&&&===o         o======o                &=====&             ",
"          o&=======&o                      .&=====&.               o&&&&&=;%       %;=====&o               .&=====&.            ",
"          o==&===&=&o                  o   o&&===&&o   o            o&&&&&%..     ..%&==&&oX           o   o&&===&&o   o        ",
"         o===&&=&&=&&o                oo  o=========o  oo           o&&&&&.::o   o::.&====o           oo  o=========o  oo       ",
"         o========&&&oo              o&=oo&==&===&==&oo=&o          o&&&&.::o=o o=o::.====o          o&=oo&==&===&==&oo=&o      ",
"        o&==&=====&&&&o             o&=======&&=&&=====&=&o         o&&&&.::o=&o&=o::.&===o         o&=======&&=&&=====&=&o     ",
"       o&&==&=====&&&&&o            o=================&&&=o         o&&&&&o:&=====&:o&&===o         o=================&&&=o     ",
"      o&====&&===&&=&&&&o          o&=======&=====&==&&&&=&o         o&&&&oo&&===&&oo&=&=o         o&=======&=====&==&&&&=&o    ",
"      o===&==&&=&&==&&&&o          o=======&&=====&&=&&&&&=o         o&&&&&&&=====&&&==&=o         o=======&&=====&&=&&&&&=o    ",
"     o&==&&oo&&=&&oo&&&&&o        o&===&=&&=&&===&&=&&&&&&=&o         o&&&&&&&=&=&&&===&o         o&===&=&&=&&===&&=&&&&&&=&o   ",
"     o==&&o...o&o...o&&&&o        o&=&XXXo&==&&=&&==&oXXX&&&o         o=&&&&&&&=&&&=====o         o&=&XXXo&==&&=&&==&oXXX&&&o   ",
"     o=&&X.   ...   .X&&&o        o=XX    ooo&&=&&ooo    XX&o          o=&&&&=====&&&==o          o=XX    ooo&&=&&ooo    XX&o   ",
"     o=&X.     .     .X&&o       o=X        ..o&o..        X&o          o=&&&=====&&&=o          o=X        ..o&o..        X&o  ",
"     o=o.             .o&o       oX           ...           Xo           o&&&=====&&&o           oX           ...           Xo  ",
"     o=o.             .o&o       X             .             X            o&=&===&=&o            X             .             X  ",
"      oo.             .oo                                                 o==&&=&&==o                                           ",
"      o.               .o                                                 ooo&&=&&ooo                                           ",
"      o.               .o                                                  ...o&o...                                            ",
"      o                 o                                                     ...                                               ",
"                                                                               .                                                ",
"                                                                                                                                ",
"                                                                                                                                ",
"           *********                     *************                  ****************                 *************          ",
"        ***************                *****************              ********************             *****************        ",
"        ***************                *****************              ********************             *****************        ",
"           *********                     *************                  ****************                 *************          "
};
