/* XPM */
static char *result[] = {
/* columns rows colors chars-per-pixel */
"32 32 15 1 ",
"  c black",
". c #000001",
"X c #403830",
"o c #005820",
"O c #007838",
"+ c #705850",
"@ c #08A058",
"# c #10C870",
"$ c #A08070",
"% c #788088",
"& c #A8B0B8",
"* c #C0B8B8",
"= c #C0C8D8",
"- c #D0D8E8",
"; c #E0E8F0",
/* pixels */
"...............  ...............",
".............* -- *.............",
"............  -;;;o ............",
"........... %-;;;;;% *..........",
".........* ---;;;;;;-% *........",
".......* o--%-;;-;;@--*% .......",
"...... o%*@@-;;**-;-O@@@  ......",
".......%    -;-@*-;-%   *.......",
"........*  -;;@% @;;-%* %.......",
".......% * -;@O  O@;;%-*% ......",
".....* %-%*-@O %*  @@ --;; .....",
"....% *-- @O  %---% O @---- ....",
"...  --% o   o*-;-*o  o oO .....",
"....%    *;-Oo-;;;- *-*o  ......",
"....... -;;*O @;;;@ *-;- .......",
"...... %;;-@  @;;;O O@;;; ......",
"..... %;-*@ O%o@;@ * O@-;; .....",
".... -%@O  %-- O@O%-*  O@@  ....",
"... -;    %*;;- @ -;;%%   *- ...",
".. -;;-@ o%;;;-O O-;;- oO@--- ..",
"... oO   %-;;-@Oo@-;;; o Oo  ...",
"....*    *;;-@oO o@--;*    *....",
"........ ---@Oo X O @;; ........",
"........ #@Oo  X+X  O@@ ........",
"........     X++++XX    ........",
".......==%% +X$$$$+XX %==.......",
"......===% +X +$+$+ ++ %=.......",
"......==&%   +$+X+$X  %&==......",
"......==&&%%         %&&&=......",
".......==&&&%%%%%%%%%&&==.......",
"........===&&&&&&&&&&&===.......",
".........===============........"
};
