/* XPM */
static char *result[] = {
/* columns rows colors chars-per-pixel */
"128 32 19 1 ",
"  c black",
". c #000001",
"X c #403830",
"o c #005820",
"O c #007838",
"+ c #705850",
"@ c #E90E0E",
"# c #08A058",
"$ c #F89600",
"% c #F8CC00",
"& c #F8FF00",
"* c #A08070",
"= c #7F7FFF",
"- c #788088",
"; c #A8B0B8",
": c #C0B8B8",
"> c #C0C8D8",
", c #D0D8E8",
"< c #E0E8F0",
/* pixels */
"...............&&..............................%%..............................$$..............................%%...............",
".............:&&&&:..........................:%%%%:..........................:$$$$:..........................:%%%%:.............",
"............  &&&&o ........................  %%%%o ........................  $$$$o ........................  %%%%o ............",
"........... -,<&&<<- :..................... -,<%%<<- :..................... -,<$$<<- :..................... -,<%%<<- :..........",
".........= ,,,<<<<<<,- :.................& ,,,<<<<<<,- :.................@ ,,,<<<<<<,- :.................& ,,,<<<<<<,- :........",
".......:===,-,<<,<<#,,:- ..............:&&&,-,<<,<<#,,:- ..............:@@@,-,<<,<<#,,:- ..............:&&&,-,<<,<<#,,:- .......",
"...... o-=##,<<::,<,O#=#  ............ o-&##,<<::,<,O#&#  ............ o-@##,<<::,<,O#@#  ............ o-&##,<<::,<,O#&#  ......",
".......-    ,<,#&,<,-===:..............-    ,<,#@,<,-&&&:..............-    ,<,#&,<,-@@@:..............-    ,<,#=,<,-&&&:.......",
"........:  ,<<#&&&<<,-= -...............:  ,<<#@@@<<,-& -...............:  ,<<#&&&<<,-@ -...............:  ,<<#===<<,-& -.......",
".......- : ,<#O &O#<<-,:- .............- : ,<#O @O#<<-,:- .............- : ,<#O &O#<<-,:- .............- : ,<#O =O#<<-,:- ......",
".....: -,-:@#O -:  ## ,,<< ..........: -,-:&#O -:  ## ,,<< ..........: -,-:=#O -:  ## ,,<< ..........: -,-:&#O -:  ## ,,<< .....",
"....- :,, @@@ -,,,- O #,,,, ........- :,, &&& -,,,- O #,,,, ........- :,, === -,,,- O #,,,, ........- :,, &&& -,,,- O #,,,, ....",
"...  ,,- o @ o:,<,:o  o oO@........  ,,- o & o:,<,:o  o oO=........  ,,- o = o:,<,:o  o oO&........  ,,- o & o:,<,:o  o oO@.....",
"....-&   :<,Oo,<<<, :,:o @@@........-=   :<,Oo,<<<, :,:o ===........-&   :<,Oo,<<<, :,:o &&&........-@   :<,Oo,<<<, :,:o @@@....",
"....&&& ,<<:O #<<<# :=<, .@.........=== ,<<:O #<<<# :&<, .=.........&&& ,<<:O #<<<# :@<, .&.........@@@ ,<<:O #<<<# :&<, .@.....",
".....& -<<,#  #<<<O ===<< ...........= -<<,#  #<<<O &&&<< ...........& -<<,#  #<<<O @@@<< ...........@ -<<,#  #<<<O &&&<< ......",
"..... -<,:# O-o#<# : =#,<< .......... -<,:# O-o#<# : &#,<< .......... -<,:# O-o#<# : @#,<< .......... -<,:# O-o#<# : &#,<< .....",
".... ,-#O  -,,&O#O-,:  O##  ........ ,-#O  -,,@O#O-,:  O##  ........ ,-#O  -,,&O#O-,:  O##  ........ ,-#O  -,,=O#O-,:  O##  ....",
"... ,<    -:<&&&# ,<<--   :, ...... ,<    -:<@@@# ,<<--   :, ...... ,<    -:<&&&# ,<<--   :, ...... ,<    -:<===# ,<<--   :, ...",
".. ,<<,# o-<<<&O O,<<, oO#,,, .... ,<<,# o-<<<@O O,<<, oO#,,, .... ,<<,# o-<<<&O O,<<, oO#,,, .... ,<<,# o-<<<=O O,<<, oO#,,, ..",
"... =O   -,<<,#Oo#,<<< o Oo  ...... &O   -,<<,#Oo#,<<< o Oo  ...... @O   -,<<,#Oo#,<<< o Oo  ...... &O   -,<<,#Oo#,<<< o Oo  ...",
"...===   :<<,#oO o#,,<:    &.......&&&   :<<,#oO o#,,<:    @.......@@@   :<<,#oO o#,,<:    &.......&&&   :<<,#oO o#,,<:    =....",
"....=... @,,#Oo X O #<< ..&&&.......&... &,,#Oo X O #<< ..@@@.......@... =,,#Oo X O #<< ..&&&.......&... @,,#Oo X O #<< ..===...",
"........@@@Oo  X+X  @## ...&............&&&Oo  X+X  &## ...@............===Oo  X+X  =## ...&............@@@Oo  X+X  &## ...=....",
"........ @   X++++X@@@  ................ &   X++++X&&&  ................ =   X++++X===  ................ @   X++++X&&&  ........",
".......>>-- +X****+X@ ->>..............>>-- +X****+X& ->>..............>>-- +X****+X= ->>..............>>-- +X****+X& ->>.......",
"......>>>- +X +*+*+ ++ ->.............>>>- +X +*+*+ ++ ->.............>>>- +X +*+*+ ++ ->.............>>>- +X +*+*+ ++ ->.......",
"......>>;-   +*+X+*X  -;>>............>>;-   +*+X+*X  -;>>............>>;-   +*+X+*X  -;>>............>>;-   +*+X+*X  -;>>......",
"......>>;;--         -;;;>............>>;;--         -;;;>............>>;;--         -;;;>............>>;;--         -;;;>......",
".......>>;;;---------;;>>..............>>;;;---------;;>>..............>>;;;---------;;>>..............>>;;;---------;;>>.......",
"........>>>;;;;;;;;;;;>>>...............>>>;;;;;;;;;;;>>>...............>>>;;;;;;;;;;;>>>...............>>>;;;;;;;;;;;>>>.......",
".........>>>>>>>>>>>>>>>.................>>>>>>>>>>>>>>>.................>>>>>>>>>>>>>>>.................>>>>>>>>>>>>>>>........"
};
