/* XPM */
static char *result[] = {
/* columns rows colors chars-per-pixel */
"128 128 21 1 ",
"  c black",
". c #000001",
"X c gray8",
"o c #570F05",
"O c #403B26",
"+ c #753E2D",
"@ c #696354",
"# c #932400",
"$ c #D33C38",
"% c #82856E",
"& c #828573",
"* c #D48C52",
"= c #BFB08F",
"- c #BCBCBC",
"; c #EBB385",
": c #FFD9AD",
"> c #E3D6BF",
", c #FFF5DE",
"< c #E2E2E2",
"1 c white",
"2 c None",
/* pixels */
"............................................ooooooooo.......................................................ooooooooo...........",
"............ooooooooo.....................oo##$$$$###oo.....................ooooooooo.....................oo##$$$$###oo.........",
"..........oo##$$$$$##ooo.................o##$$$$$$$####o.................ooo##$$$$$##oo..................o##$$$$$$$####o........",
".........o##$$$$$$$$$###oo..............o##$$$$$$$$$####o..............oo###$$$$$$$####o................o##$$$$$$$$$####o.......",
"........o##$$$$$$$$$######o............o#########ooooo###o............o####$$$$$$$$$####o..............o#########ooooo###o......",
".......o#########ooooo#####o.......... o#oo&---------&oo#o ..........o###########ooooo###o............ o#oo&---------&oo#o .....",
"...... o#oo&---------&oo###o.......... oo&-<111111111<-&oo ..........o###oo&---------&oo#o ........... oo&-<111111111<-&oo .....",
"...... oo&-<111111111<-&oo oo.........o&-<<<111111111<<<-&o ........oo oo&-<111111111<-&oo ...........o&-<<<111111111<<<-&o ....",
"......o&-<<<111111111<<<-&o && ...... o--<<<-@@@@@@@-<<<--o ...... && o&-<<<111111111<<<-&o.......... o--<<<-@@@@@@@-<<<--o ....",
"..... o--<<<-@@@@@@@-<<<--o --& .....o&--&&OOOO*;*OOOO&&--&o..... &-- o--<<<-@@@@@@@-<<<--o .........o&--&&OOOO*;*OOOO&&--&o....",
".....o&--&&OOOO*;*OOOO&&--&o--& .....o&&&O%>>=%O;O%=>>%O&&&o..... &--o&--&&OOOO*;*OOOO&&--&o.........o&&&O%>>=%O;O%=>>%O&&&o....",
".....o&&&O%>>=%O;O%=>>%O&&&o&& ..... @&&O=>,,,=O*O=,,,>=O&&@ ..... &&o&&&O%>>=%O;O%=>>%O&&&o........ @&&O=>,,,=O*O=,,,>=O&&@ ...",
".... @&&O=>,,,=O*O=,,,>=O&&@  ...... @@&O%OOOO+*;*+OOOO%O&@@ ......  @&&O=>,,,=O*O=,,,>=O&&@ ....... @@&O%OOOO+*;*+OOOO%O&@@ ...",
".... @@&O%OOOO+*;*+OOOO%O&@@ ....... @@@OO*   *;;;;   *OO@@@ ....... @@&O%OOOO+*;*+OOOO%O&@@ ....... @@@OO*   *;;;;   *OO@@@ ...",
".... @@@OO*   *;;;;   *OO@@@ ........ @@O+;;*%=>>>=%*;;+O@@ ........ @@@OO*   ;;;;*   *OO@@@ ........ @@O+;;*%=>>>=%*;;+O@@ ....",
"..... @@O+;;*%=>>>=%*;;+O@@ ......... @@ +*O%>,,,,,>%O*+ @@ ......... @@O+;;*%=>>>=%*;;+O@@ ......... @@ +*O%>,,,,,>%O*+ @@ ....",
"..... @@ +*O%>,,,,,>%O*+ @@ ..........oooO=>,,=O%O=,,>=Oooo.......... @@ +*O%>,,,,,>%O*+ @@ ..........oooO=>,,=O%O=,,>=Oooo.....",
"......oooO=>,,=O%O=,,>=Oooo..........o###O%==OO%%%OO==%O###o..........oooO=>,,=O%O=,,>=Oooo..........o###O%==OO%%%OO==%O###o....",
"......o##O%==OO%%%OO==%O###o........o#$$##OOO%=>>>=%OOO##$$#o........o###O%==OO%%%OO==%O##o.........o#$$##OOO%=>>>=%OOO##$$#o...",
".....o#$$#OOO%=>>>=%OOO#$$#o........o$$$##oO%=>,,,>=%Oo##$$$o........o#$$#OOO%=>>>=%OOO#$$#o........o$$$##oO%=>,,,>=%Oo##$$$o...",
"....o##$##oO%=>,,,>=%Oo$$$$#o......o#$###o#oO=,,,,,=Oo#o###$#o......o#$$$$oO%=>,,,>=%Oo##$##o......o#$###o#oO=,,,,,=Oo#o###$#o..",
"... @@###o#oO=,,,,,=Oo#@@@$#o......o#@@@oo##O%=,,,=%O##oo@@@#o......o#$@@@#oO=,,,,,=Oo#o###@@ .....o#@@@oo##O%=,,,=%O##oo@@@#o..",
"... @&@@oo$#O%=,,,=%O#@-11-@o......o@<<-@o$$#OO%=%OO#$$o@-<<@o......o@-11-@#O%=,,,=%O#$oo@@&@ .....o@<<-@o$$#OO%=%OO#$$o@-<<@o..",
".... o&@ o$$#OO%=%OO#$@@11<@o......@-11&@o$$$#&OOO&#$$$o@&11-@......o@<11@@$#OO%=%OO#$$o @&o ......@-11&@o$$$#&OOO&#$$$o@&11-@..",
".... #o  o$$$#&OOO&#$$#oo&1o.......@&@oo @#$$$--@--$$$#@ oo@&@.......o1&oo#$$#&OOO&#$$$o  o# ......@&@oo @#$$$--@--$$$#@ oo@&@..",
".....  2 @#$$$--@--$$$o#$#oo....... @o$# &-o#$11&11$$o-& #$o@ .......oo#$#o$$$--@--$$$#@ 2  ....... @o$# &-o#$11&11$$o-& #$o@ ..",
"....... @&-o#$11&11$$#@o#oo.........    @&--<<11@11<<--&@    .........oo#o@#$$11&11$#o-&@ ..........    @&--<<11@11<<--&@    ...",
"....... @&--<<11@11<<--&@ .............. @@-<11@ @11<-@@ .............. @&--<<11@11<<--&@ .............. @@-<11@ @11<-@@ .......",
"........ @@-<11@ @11<-&@ ................ ooooo   ooooo ................ @&-<11@ @11<-@@ ................ ooooo   ooooo ........",
".........   oo##oo      ................. o###o   o###o .................      oo##oo   ................. o###o   o###o ........",
"........... o#$$#o     ................... $$$     $$$ ...................     o#$$#o .................... $$$     $$$ .........",
"...........  o##o    .....................             .....................    o##o  ....................             .........",
"..........................................ooooooooooo ....................................................ooooooooooo ..........",
"..........ooooooooooo ..................oo###$$$$$$$#oo ..................ooooooooooo ..................oo###$$$$$$$#oo ........",
"........oo###$$$$$$$#oo ...............o##$$$$$$$$$$$$#o ...............oo###$$$$$$$#oo ...............o##$$$$$$$$$$$$#o .......",
".......o##$$$$$$$$$$$$#o .............o#$$$$$$$$$$$$$$$#o .............o##$$$$$$$$$$$$#o .............o#$$$$$$$$$$$$$$$#o ......",
"......o#$$$$$$$$$$$$$$$#o ...........@&-----@@oo#$$$$$$$#o ...........o#$$$$$$$$$$$$$$$#o ...........@&-----@@oo#$$$$$$$#o .....",
".....@&-----@@oo#$$$$$$$#o ..........@-<<1111<-&oo###$$$##o .........@&-----@@oo#$$$$$$##o ..........@-<<1111<-&oo###$$$##o ....",
".....@-<<1111<-&oo###$$$#o ..........@-<<11111<<-&o##o####oo ........@-<<1111<-&oo###$###oo .........@-<<11111<<-&o##o####oo ...",
".....@-<<11111<<-&o##o#$##o .........@--@@@@-<<<--@o##oo###o ........@-<<11111<<-&o##o####oo ........@--@@@@-<<<--@o##oo###o ...",
".....@--@@@@-<<<--@o##o###o .......... @+**O%%O&---@o#ooo##oo .......@--@@@@-<<<--@o##oo##ooo ........ @+**O%%O&---@o#ooo##oo ..",
"...... @+**O%%O&---@o#oo###o ......... +*;O=>>=O@--&@oooooooo ........ @+**O%%O&---@o#ooooooo@ ....... +*;O=>>=O@--&@oooooooo ..",
"...... +*;O=>>=O@--&@oooo##o .......... ;;O,,,,=O@--&ooooooo@@ ....... +*;O=>>=O@--&@ooooooo@-@ ....... ;;O,,,,=O@--&ooooooo@@ .",
"....... ;;O,,,,=O@--&ooooooo .......... ;;*OOOO%O+@&&@oo oo@1-@ ....... ;;O,,,,=O@--&oooo  @--@ ....... ;;*OOOO%O+@&&@oo oo@1-@ ",
"....... ;;*OOOO%O+@&&@oo oo@@ ......... ***   +***+@&@oo   @1-@ ....... ;;*OOOO%O+@&&@oo  . @@ ........ ***   +***+@&@oo   @1-@ ",
"....... ***   +***+@&@oo  @1-@ ....... =>>=%*;;;**+@@@oo .. @@ ........ ***   +***+@&@oo ...  ........ =>>=%*;;;**+@@@oo .. @@ .",
"...... =>>=%*;;;**+@@@oo .@1-@ ......O=,,,,=%*:::;*X@@@ ....  ........ =>>=%*;;;**+@@@oo ............O=,,,,=%*:::;*X@@@ ....  ..",
".....O=,,,,=%*:::;*X@@@ .. @@ .......O%OO>,,=%*::;*X@@@ .............O=,,,,=%*:::;*X@@@ .............O%OO>,,=%*::;*X@@@ ........",
".....O%OO>,,=%*::;*X@@@ ...  ........O%%=O%>>%*;;*+@@@ ..............O%OO>,,=%*::;*X@@@ .............O%%=O%>>%*;;*+@@@ .........",
".....O%%=O%>>%*;;*+@@@ ...............O=,>=%=%O**+XX@ ...............O%%=O%>>%*;;*+@@@ ...............O=,>=%=%O**+XX@ ..........",
"......O=,>=%=%O**+XX@ ................O%,,>=%Ooooo#o .................O=,>=%=%O**+XX@ ................O%,,>=%Ooooo#o ...........",
"......O%,,>=%Ooooooo ..................%,,>=Oo#oo#$#o ................O%,,>=%Oooo##o ..................%,,>=Oo#oo#$#o ..........",
".......%,,>=Oo#oo### ..................O,>=%O###o$$$# .................%,,>=Oo####$$# .................O,>=%O###o$$$# ..........",
".......O,>=%O###o$$#o .................O==OOo$#oo#$$$o ................O,>=%O#$#o#$$$o ................O==OOo$#oo#$$$o .........",
".......O==OOo#oo#$$$# ..................OO@o$$ &&@#$$# ................O==OOo$$$#o$$$# .................OO@o$$ &&@#$$# .........",
"........OO@$ &&#$$$$#o ................. @<$$ #11@$$$# ...............  OO@o$$$$#o$$$# ................. @<$$ #11@$$$# .........",
"........ @< #11#$$$$#o ................ @-<$$ #11@$$#o  ............. #o @<#$$$#-@$$$#o ............... @-<$$ #11@$$#o  ........",
"....... @-< #11#$$$#oo  ............... --1-$ o<<@##o @ ............. # @-<#$$#@11@$#oo ............... --1-$ o<<@##o @ ........",
"....... --1 o<<@$##  @@ ............... -@111- --@   @@ ............. o --1-## #<1-#oo  ............... -@111- --@   @@ ........",
"....... -@11 --@   @@&@ ............... @o@-11-@@&&&&@ ...............  -@111- #o<-oo @ ............... @o@-11-@@&&&&@ .........",
"....... @o@11-@@&&&&&  .................   o@<<<-&&@  ................. @o@-11-  @  @@ .................   o@<<<-&&@  ..........",
"....... o#oo   ooooooo .................... ooooooo .................... oooooo@@@@@  ..................... ooooooo ............",
"........        ###ooo ..................... ###ooo ..................... ##o  o      ...................... ###ooo ............",
".............         ......................       ...................... ###oo    .........................       .............",
".......................................... ooooooooooo.................................................... ooooooooooo..........",
".......... ooooooooooo.................. oo#$$$$$$$###oo.................. ooooooooooo.................. oo#$$$$$$$###oo........",
"........ oo#$$$$$$$###oo............... o#$$$$$$$$$$$$##o............... oo#$$$$$$$###oo............... o#$$$$$$$$$$$$##o.......",
"....... o#$$$$$$$$$$$$##o............. o#$$$$$$$$$$$$$$$#o............. o#$$$$$$$$$$$$##o............. o#$$$$$$$$$$$$$$$#o......",
"...... o#$$$$$$$$$$$$$$$#o........... o#$$$$$$$#oo@@-----&@........... o#$$$$$$$$$$$$$$$#o........... o#$$$$$$$#oo@@-----&@.....",
"..... o#$$$$$$$#oo@@-----&@......... o##$$$###oo&-<1111<<-@.......... o##$$$$$$#oo@@-----&@......... o##$$$###oo&-<1111<<-@.....",
"..... o#$$$###oo&-<1111<<-@........ oo####o##o&-<<11111<<-@......... oo###$###oo&-<1111<<-@........ oo####o##o&-<<11111<<-@.....",
".... o##$#o##o&-<<11111<<-@........ o###oo##o@--<<<-@@@@--@........ oo####o##o&-<<11111<<-@........ o###oo##o@--<<<-@@@@--@.....",
".... o###o##o@--<<<-@@@@--@....... oo##ooo#o@---&O%%O**+@ ........ ooo##oo##o@--<<<-@@@@--@....... oo##ooo#o@---&O%%O**+@ ......",
"... o###oo#o@---&O%%O**+@ ........ oooooooo@&--@O=>>=O;*+ ....... @ooooooo#o@---&O%%O**+@ ........ oooooooo@&--@O=>>=O;*+ ......",
"... o##oooo@&--@O=>>=O;*+ ....... @@ooooooo&--@O=,,,,O;; ....... @-@ooooooo@&--@O=>>=O;*+ ....... @@ooooooo&--@O=,,,,O;; .......",
"... ooooooo&--@O=,,,,O;; ....... @-1@oo oo@&&@+O%OOOO*;; ....... @--@  oooo&--@O=,,,,O;; ....... @-1@oo oo@&&@+O%OOOO*;; .......",
".. @@oo oo@&&@+O%OOOO*;; ....... @-1@   oo@&@+***+   *** ........ @@ .  oo@&&@+O%OOOO*;; ....... @-1@   oo@&@+***+   *** .......",
". @-1@  oo@&@+***+   *** ........ @@ .. oo@@@+**;;;*%=>>= ........  ... oo@&@+***+   *** ........ @@ .. oo@@@+**;;;*%=>>= ......",
". @-1@. oo@@@+**;;;*%=>>= ........  .... @@@X*;:::*%=,,,,=O............ oo@@@+**;;;*%=>>= ........  .... @@@X*;:::*%=,,,,=O.....",
".. @@ .. @@@X*;:::*%=,,,,=O............. @@@X*;::*%=,,>OO%O............. @@@X*;:::*%=,,,,=O............. @@@X*;::*%=,,>OO%O.....",
"...  ... @@@X*;::*%=,,>OO%O.............. @@@+*;;*%>>%O=%%O............. @@@X*;::*%=,,>OO%O.............. @@@+*;;*%>>%O=%%O.....",
"......... @@@+*;;*%>>%O=%%O............... @XX+**O%=%=>,=O............... @@@+*;;*%>>%O=%%O............... @XX+**O%=%=>,=O......",
".......... @XX+**O%=%=>,=O................. o#ooooO%=>,,%O................ @XX+**O%=%=>,=O................. o#ooooO%=>,,%O......",
"........... ooooooO%=>,,%O................ o#$#oo#oO=>,,%.................. o##oooO%=>,,%O................ o#$#oo#oO=>,,%.......",
"........... ###oo#oO=>,,%................. #$$$o###O%=>,O................. #$$####oO=>,,%................. #$$$o###O%=>,O.......",
".......... o#$$o###O%=>,O................ o$$$#oo#$oOO==O................ o$$$#o#$#O%=>,O................ o$$$#oo#$oOO==O.......",
".......... #$$$#oo#oOO==O................ #$$#@&& $$o@OO................. #$$$o#$$$oOO==O................ #$$#@&& $$o@OO........",
"......... o#$$$$#&& $@OO................. #$$$@11# $$<@ ................. #$$$o#$$$$o@OO  ............... #$$$@11# $$<@ ........",
"......... o#$$$$#11# <@ ................  o#$$@11# $$<-@ ............... o#$$$@-#$$$#<@ o# .............  o#$$@11# $$<-@ .......",
"........  oo#$$$#11# <-@ ............... @ o##@<<o $-1-- ............... oo#$@11@#$$#<-@ # ............. @ o##@<<o $-1-- .......",
"........ @@  ##$@<<o 1-- ............... @@   @-- -111@- ...............  oo#-1<# ##-1-- o ............. @@   @-- -111@- .......",
"........ @&@@   @-- 11@- ................ @&&&&@@-11-@o@ ............... @ oo-<o# -111@-  ............... @&&&&@@-11-@o@ .......",
".........  &&&&&@@-11@o@ .................  @&&-<<<@o   ................. @@  @  -11-@o@ .................  @&&-<<<@o   ........",
"......... ooooooo   oo#o ................... ooooooo .....................  @@@@@oooooo .................... ooooooo ...........",
"......... ooo###        .................... ooo### ......................      o  o## ..................... ooo### ............",
"..........         ..........................       .........................    oo### ......................       ............",
"............................................ooooooooo.......................................................ooooooooo...........",
"............ooooooooo.....................oo##$$$$$##oo.....................ooooooooo.....................oo##$$$$$##oo.........",
"..........oo##$$$$$##oo..................o##$$$$$$$$$##o..................oo##$$$$$##oo..................o##$$$$$$$$$##o........",
".........o##$$$$$$$$$##o................o##$$$$$$$$$$$##o................o##$$$$$$$$$##o................o##$$$$$$$$$$$##o.......",
"........o##$$$$$$$$$$$##o..............o##$$$$$$$$$$$$$##o..............o##$$$$$$$$$$$##o..............o##$$$$$$$$$$$$$##o......",
".......o##$$$$$$$$$$$$$##o............ o##$$$$$$$$$$$$$##o ............o##$$$$$$$$$$$$$##o............ o##$$$$$$$$$$$$$##o .....",
"...... o##$$$$$$$$$$$$$##o ........... ###$$$$$$$$$$$$$### ........... o##$$$$$$$$$$$$$##o ........... ###$$$$$$$$$$$$$### .....",
"...... ###$$$$$$$$$$$$$### .......... o##o$$$$$$$$$$$$$o##o .......... ###$$$$$$$$$$$$$### .......... o##o$$$$$$$$$$$$$o##o ....",
"..... o###$$$$$$$$$$$$$o##o ......... o##o#$$$$$$$$$$$#o##o ......... o##o$$$$$$$$$$$$$###o ......... o##o#$$$$$$$$$$$#o##o ....",
"..... o####$$$$$$$$$$$$o##o ........ @o##o#$$$$$$$$$$$#o##o& ........ o##o$$$$$$$$$$$$####o ........ @o##o#$$$$$$$$$$$#o##o& ...",
".... @o####$$$$$$$$$$$#o##o& ....... &o###o#$$$$$$$$$#o###o- ....... @o##o#$$$$$$$$$$$####o& ....... &o###o#$$$$$$$$$#o###o- ...",
".... &o#####$$$$$$$$$$o###o- ....... -@o##o#$$$$$$$$$#o##o@- ....... &o###o$$$$$$$$$$#o###o- ....... -@o##o#$$$$$$$$$#o##o@- ...",
".... -@o##o##$$$$$$$$#o##o@- ....... -@o###o#$$$$$$$#o###o&& ....... -@o##o#$$$$$$$$##o##o@- ....... -@o###o#$$$$$$$#o###o&& ...",
".... -@o###o##$$$$$$$o###o&& ....... @-o####o#$$$$$#o####o&@ ....... -@o###o$$$$$$$##o###o&& ....... @-o####o#$$$$$#o####o&@ ...",
".... @-o####oo##$$$#ooo##o&@ ........ -@o####oo#@#ooo###o@& ........ @-o######$$$##oo####o&@ ........ -@o####oo#@#ooo###o@& ....",
"..... -@o#####oo#@#oooo#o@& ......... &@@o####@<<<@oo##o@@@ ......... -@o###oo#@#ooo####o@& ......... &@@o####@<<<@oo##o@@@ ....",
"..... &@@o######@<<<@ooo@@@ .......... &@@oo# <111< ooo@@@ .......... &@@o##@<<<@ooo###o@@@ .......... &@@oo# <111< ooo@@@ .....",
"...... &@@oo### <111< o@@@ ..........oo @@@@o <111< o@@@@ oo.......... &@@o <111< oo#oo@@@ ..........oo @@@@o <111< o@@@@ oo....",
"......o @@@@ooo <111< @@@ ..........o##o  @@@ -111- @@@  o##o.......... @@@ <111< ooo@@@@ o.........o##o  @@@ -111- @@@  o##o...",
".....o#o  @@@@@ -111- @  oo.........o$$##o  @@ <-< @@  oo#$$o.........oo  @ -111- @@@@@  o#o........o$$##o  @@ <-< @@  oo#$$o...",
"....o####o  @@@@ <-< @ o##o........o#$$$#o#o         o#o#$$$#o........o##o @ <-< @@@@  o####o......o#$$$#o#o         o#o#$$$#o..",
"....o####o#o         oo#$$#o.......oo$$$#o###o     o###o#$$$oo.......o#$$#oo         o#o####o......oo$$$#o###o     o###o#$$$oo..",
"....@####o###o     o#o#$$$#o.......@o#$$#o$$#########$$o#$$#o@.......o#$$$#o#o     o###o####@......@o#$$#o$$#########$$o#$$#o@..",
".... @@#o#$$#########o#$$$##.......@@ooooo$$$$$$$$$$$$$ooooo@@.......##$$$#o#########$$#o#@@ ......@@ooooo$$$$$$$$$$$$$ooooo@@..",
".....  @oo$$$$$$$$$$$#o#$$$@ ......@&@@@ @#$$$$$$$$$$$#@ @@@&@...... @$$$#o#$$$$$$$$$$$oo@  .......@&@@@ @#$$$$$$$$$$$#@ @@@&@..",
"....... @@#$$$$$$$$$$#o##@@- ...... @&&@ &-o#$$$$$$$#o-& @&&@ ...... -@@##o#$$$$$$$$$$#@@ ......... @&&@ &-o#$$$$$$$#o-& @&&@ ..",
"....... @&-o#$-111-$##o @-- ........    @&--<<11111<<--&@    ........ --@ o##$-111-$#o-&@ ..........    @&--<<11111<<--&@    ...",
"....... @&--<<1111-<<-@ @@ ............. @@-<1111111<-@@ ............. @@ @-<<-1111<<--&@ .............. @@-<1111111<-@@ .......",
"........ @@-<1@@@@@-<-@   ............... ooooo   ooooo ...............   @-<-@@@@@1<-@@ ................ ooooo   ooooo ........",
".........    o###o      ................. ooooo   ooooo .................      o###o    ................. ooooo   ooooo ........",
"..........   ##oo#     ................... ###     ### ...................     #oo##   ................... ###     ### .........",
"............ #oooo   .....................             .....................   oooo# .....................             ........."
};
