/* XPM */
static char *result[] = {
/* columns rows colors chars-per-pixel */
"32 32 3 1 ",
"  c #C0C8D8",
". c #D0D8E8",
"X c #E0E8F0",
/* pixels */
"..XXXXXXXXXXXXX.XXXXXXXXXXXXXXXX",
"XXXXXXXXXXXXXXXXXXXXXXXXXXXXXXXX",
"XXXXXXX.....XX.XXXXXXXXXXXXXXXXX",
"XXXXXXXXXX....XXXXXXXXXXXX.XXXXX",
"XXXX..XXXXXXXXXXX..XX...XXXXXXXX",
"XXXXXXXXXXXXXXXXXXXXXX. .XXXXXXX",
"XXXXXXXXXXXXXXXXXXXXXXXXXXXXXXXX",
"XXXXXXXXXXXXXXXXXXXXXXXXXXXXXX..",
"XXXXXXXXX.XXXXXXXXXXXXXXXXXXXXXX",
"XXXXXXXXXXXXXXXXXXXXXXXXXXXXXXXX",
"XXXXXXXXXXXX.. ..XXXXXXXXXXXXXXX",
"XXXXXXXXXXXXXX..XXXXXXXXXXXXXXXX",
"XXXXXXXXXXXXXXXXXXXX...XXXXXXXXX",
"XXXXXXXX....XXXXXXXXXXXX.XXXXXXX",
".XXXXXXXXXXXXXXXXXXXXXXXXXXXXXX.",
"X.XXX.XXXXXXXXXXXXXXXXXXXXXXX...",
"XXXXXXXXXXXXXXXX..XXXXXXXXXXXXX.",
"XXXXXXXXXXXXXXXXXXXXXXXXXXXXXXXX",
"XXXXXXXXXXXXXXXXXXXXXXX.....XX.X",
"XXXXXXXXXX.XXXXXXXXXXXXXXX....XX",
"X..XX...XXXXXXXXXXXX..XXXXXXXXXX",
"XXXXXX. .XXXXXXXXXXXXXXXXXXXXXXX",
"XXXXXXXXXXXXXXXXXXXXXXXXXXXXXXXX",
"XXXXXXXXXXXXXX..XXXXXXXXXXXXXXXX",
"XXXXXXXXXXXXXXXXXXXXXXXXX.XXXXXX",
"XXXXXXXXXXXXXXXXXXXXXXXXXXXXXXXX",
".XXXXXXXXXXXXXXXXXXXXXXXXXXX.. .",
"XXXXXXXXXXXXXXXXXXXXXXXXXXXXXX..",
"XXXX...XXXXXXXXXXXXXXXXXXXXXXXXX",
"XXXXXXXX.XXXXXXXXXXXXXXX....XXXX",
"XXXXXXXXXXXXXXX..XXXXXXXXXXXXXXX",
"XXXXXXXXXXXXX...X.XXX.XXXXXXXXXX"
};
